<?xml version="1.0" encoding="utf-8"?>
<!-- Generator: Adobe Illustrator 19.0.0, SVG Export Plug-In . SVG Version: 6.00 Build 0)  -->
<!-- Created by @ShinCurry -->
<svg version="1.1" id="CFC" xmlns="http://www.w3.org/2000/svg" xmlns:xlink="http://www.w3.org/1999/xlink" x="0px" y="0px"
	 viewBox="0 0 703 175" style="enable-background:new 0 0 703 175;" xml:space="preserve">
<style type="text/css">
	.st0{fill:#FF9900;}
	.st1{fill:#6A6969;}
</style>
<polygon class="st0" points="105,14 2,70 2,104 105,161 105,120 48,87.5 105,55 "/>
<polygon class="st0" points="598,161 701,105 701,71 598,14 598,55 655,87.5 598,120 "/>
<path class="st1" d="M235.3,98c-5.2,19.1-23.9,31.9-44.1,29.1c-21.9-3.1-37.1-23.3-34.1-45.1c3.1-21.9,23.3-37.1,45.1-34.1
	c16.9,2.4,29.8,15,33.5,30.7l43.8-11.3c-8.1-32.8-35.3-58.9-70.8-63.9c-46.5-6.5-89.4,25.9-95.9,72.4c-6.5,46.5,25.9,89.4,72.4,95.9
	c43.2,6,83.4-21.6,94-62.9L235.3,98z"/>
<path class="st1" d="M545.8,98c-5.2,19.1-23.9,31.9-44.1,29.1c-21.9-3.1-37.1-23.3-34.1-45.1s23.3-37.1,45.1-34.1
	c16.9,2.4,29.8,15,33.5,30.7L590,67.2c-8.1-32.8-35.3-58.9-70.8-63.9c-46.5-6.5-89.4,25.9-95.9,72.4c-6.5,46.5,25.9,89.4,72.4,95.9
	c43.2,6,83.4-21.6,94-62.9L545.8,98z"/>
<g>
	<rect x="294.6" y="67.4" class="st1" width="37.4" height="105.2"/>
	<rect x="332" y="73.1" class="st1" width="26.3" height="35"/>
	<path class="st1" d="M359.6,2.4c-35.9,0-65,29.1-65,65c0,26.1,15.4,48.7,37.7,59l0.3-59c0-14.9,12.1-27,27-27
		c12.3,0,22.7,8.3,26,19.6l36.5-10.4C414.3,22.4,389.3,2.4,359.6,2.4z"/>
</g>
</svg>
